<?xml version="1.0" encoding="UTF-8"?>
<svg xmlns="http://www.w3.org/2000/svg" xmlns:xlink="http://www.w3.org/1999/xlink" width="200px" height="100px" viewBox="0 0 200 100" version="1.1">
<g id="surface1">
<path style=" stroke:none;fill-rule:nonzero;fill:rgb(100%,100%,100%);fill-opacity:1;" d="M 61.902344 62.261719 L 54.539062 62.261719 L 47.660156 52.859375 L 46.179688 52.859375 L 46.179688 62.261719 L 40.179688 62.261719 L 40.179688 39 L 46.179688 39 L 46.179688 48.480469 C 46.660156 48.460938 47.082031 48.402344 47.402344 48.339844 C 47.71875 48.261719 48.019531 48.121094 48.300781 47.917969 C 48.582031 47.71875 48.878906 47.402344 49.199219 47 C 49.519531 46.582031 49.859375 46.082031 50.21875 45.480469 C 50.441406 45.097656 50.679688 44.660156 50.960938 44.140625 C 51.238281 43.621094 51.460938 43.199219 51.660156 42.859375 C 52.460938 41.460938 53.300781 40.460938 54.199219 39.859375 C 55.082031 39.261719 56.417969 38.960938 58.21875 38.960938 C 58.761719 38.960938 59.21875 38.960938 59.640625 38.980469 C 60.058594 39 60.359375 39 60.558594 39 L 60.558594 44.039062 L 58.820312 44.039062 C 57.960938 44.039062 57.300781 44.261719 56.820312 44.699219 C 56.339844 45.140625 55.820312 45.902344 55.261719 47.019531 C 54.679688 48.121094 54.21875 48.878906 53.859375 49.320312 C 53.5 49.761719 53.140625 50.082031 52.800781 50.261719 Z M 61.902344 62.261719 "/>
<path style=" stroke:none;fill-rule:nonzero;fill:rgb(100%,100%,100%);fill-opacity:1;" d="M 84.058594 46.339844 C 84.058594 47.378906 83.878906 48.402344 83.519531 49.402344 C 83.160156 50.402344 82.640625 51.238281 81.960938 51.902344 C 81.039062 52.820312 80 53.5 78.859375 53.980469 C 77.71875 54.460938 76.300781 54.679688 74.597656 54.679688 L 70.859375 54.679688 L 70.859375 62.261719 L 64.859375 62.261719 L 64.859375 39 L 74.738281 39 C 76.21875 39 77.460938 39.121094 78.480469 39.378906 C 79.5 39.640625 80.402344 40.019531 81.179688 40.519531 C 82.121094 41.140625 82.839844 41.917969 83.320312 42.878906 C 83.820312 43.839844 84.058594 45 84.058594 46.339844 Z M 77.859375 46.480469 C 77.859375 45.820312 77.679688 45.261719 77.320312 44.78125 C 76.960938 44.300781 76.558594 43.980469 76.082031 43.78125 C 75.460938 43.539062 74.839844 43.402344 74.261719 43.359375 C 73.679688 43.320312 72.878906 43.320312 71.878906 43.320312 L 70.839844 43.320312 L 70.839844 50.28125 L 72.558594 50.28125 C 73.582031 50.28125 74.417969 50.21875 75.082031 50.097656 C 75.738281 49.980469 76.300781 49.71875 76.738281 49.359375 C 77.121094 49.019531 77.402344 48.621094 77.582031 48.160156 C 77.761719 47.699219 77.859375 47.140625 77.859375 46.480469 Z M 77.859375 46.480469 "/>
<path style=" stroke:none;fill-rule:nonzero;fill:rgb(100%,100%,100%);fill-opacity:1;" d="M 108.800781 39 L 100.339844 57.597656 C 99.859375 58.679688 99.28125 59.539062 98.660156 60.199219 C 98.019531 60.859375 97.359375 61.339844 96.699219 61.660156 C 96.019531 61.980469 95.359375 62.199219 94.699219 62.28125 C 94.039062 62.378906 93.378906 62.417969 92.71875 62.417969 C 92 62.417969 91.121094 62.402344 90.121094 62.359375 C 89.121094 62.320312 88.460938 62.28125 88.140625 62.261719 L 88.140625 57.179688 L 88.5 57.179688 C 88.71875 57.238281 89.097656 57.300781 89.660156 57.378906 C 90.21875 57.441406 90.761719 57.480469 91.300781 57.480469 C 92.339844 57.480469 93.160156 57.378906 93.800781 57.179688 C 94.441406 56.980469 94.839844 56.71875 94.980469 56.402344 L 85.519531 39 L 92 39 L 97.78125 50.039062 L 102.558594 39 Z M 108.800781 39 "/>
<path style=" stroke:none;fill-rule:nonzero;fill:rgb(100%,100%,100%);fill-opacity:1;" d="M 133.097656 62.261719 L 127.261719 62.261719 L 127.261719 46.78125 L 117.597656 62.261719 L 111.878906 62.261719 L 111.878906 39 L 117.71875 39 L 117.71875 53.019531 L 126.699219 39 L 133.097656 39 Z M 133.097656 62.261719 "/>
<path style=" stroke:none;fill-rule:nonzero;fill:rgb(100%,100%,100%);fill-opacity:1;" d="M 156.902344 55.320312 C 156.902344 56.441406 156.660156 57.460938 156.199219 58.378906 C 155.738281 59.300781 155.039062 60.082031 154.121094 60.699219 C 153.160156 61.359375 152.019531 61.859375 150.699219 62.199219 C 149.378906 62.539062 147.761719 62.699219 145.859375 62.699219 C 144.179688 62.699219 142.621094 62.558594 141.179688 62.28125 C 139.738281 62 138.417969 61.640625 137.199219 61.179688 L 137.199219 55.941406 L 137.761719 55.941406 C 138.058594 56.097656 138.5 56.339844 139.082031 56.660156 C 139.660156 56.960938 140.261719 57.238281 140.859375 57.441406 C 141.621094 57.71875 142.300781 57.941406 142.941406 58.097656 C 143.582031 58.261719 144.320312 58.339844 145.160156 58.339844 C 145.980469 58.339844 146.738281 58.28125 147.417969 58.140625 C 148.097656 58 148.660156 57.800781 149.121094 57.519531 C 149.640625 57.21875 150.019531 56.859375 150.261719 56.460938 C 150.519531 56.058594 150.640625 55.539062 150.640625 54.902344 C 150.640625 54.300781 150.539062 53.800781 150.359375 53.441406 C 150.179688 53.058594 149.902344 52.761719 149.5 52.519531 C 149.121094 52.300781 148.640625 52.160156 148.058594 52.058594 C 147.480469 51.980469 146.800781 51.941406 146.019531 51.941406 L 141.738281 51.941406 L 141.738281 47.800781 L 145.878906 47.800781 C 146.660156 47.800781 147.339844 47.738281 147.902344 47.621094 C 148.460938 47.5 148.902344 47.339844 149.179688 47.121094 C 149.5 46.878906 149.71875 46.597656 149.839844 46.300781 C 149.960938 46 150.019531 45.621094 150.019531 45.160156 C 150.019531 44.378906 149.640625 43.820312 148.859375 43.460938 C 148.082031 43.097656 147.019531 42.917969 145.679688 42.917969 C 144.878906 42.917969 144.140625 43 143.441406 43.160156 C 142.761719 43.320312 142.097656 43.5 141.460938 43.699219 C 140.78125 43.941406 140.238281 44.160156 139.839844 44.359375 C 139.441406 44.558594 139 44.761719 138.558594 44.980469 L 137.980469 44.980469 L 137.980469 40.082031 C 139.039062 39.699219 140.339844 39.339844 141.878906 39.019531 C 143.417969 38.699219 145.019531 38.539062 146.679688 38.539062 C 149.859375 38.539062 152.261719 39.039062 153.859375 40.039062 C 155.460938 41.039062 156.261719 42.417969 156.261719 44.179688 C 156.261719 45.5 155.839844 46.640625 154.980469 47.597656 C 154.121094 48.558594 153 49.199219 151.640625 49.519531 L 151.640625 49.761719 C 152.199219 49.859375 152.800781 50.019531 153.417969 50.261719 C 154.039062 50.5 154.597656 50.820312 155.121094 51.261719 C 155.640625 51.699219 156.058594 52.238281 156.402344 52.878906 C 156.71875 53.5 156.902344 54.320312 156.902344 55.320312 Z M 156.902344 55.320312 "/>
<path style=" stroke:none;fill-rule:nonzero;fill:rgb(23.137255%,51.372549%,62.745098%);fill-opacity:1;" d="M 33.902344 66.519531 C 31.441406 64.820312 13.121094 51.800781 14.902344 35.261719 C 14.902344 35.261719 15.820312 26.78125 23.800781 18.960938 C 48.199219 -4.941406 142.300781 22.539062 151.699219 25.339844 C 118.019531 17.5 109.28125 17.761719 108.5 19.960938 C 108.28125 20.582031 108.71875 21.339844 109.179688 22.140625 C 112.199219 27.417969 119.480469 28.199219 122.121094 28.359375 C 116.820312 30.140625 109.839844 31.378906 103.121094 28.699219 C 94.902344 25.402344 93.019531 17.738281 87 18.121094 C 82.917969 18.359375 82.097656 21.902344 75.238281 25.859375 C 70.140625 28.800781 65.261719 29.917969 61.960938 30.402344 C 66.179688 28.160156 74.160156 23.621094 73.378906 20.980469 C 72.761719 18.878906 66.878906 18.738281 63.460938 19.140625 C 54.597656 20.140625 48.339844 26.238281 45.140625 30.058594 C 44.78125 29.441406 41.320312 23.679688 35.558594 23.5 C 29.761719 23.320312 26.039062 28.960938 25.21875 30.179688 C 19.78125 38.417969 23.621094 52.699219 33.902344 66.519531 Z M 33.902344 66.519531 "/>
<path style=" stroke:none;fill-rule:nonzero;fill:rgb(23.137255%,51.372549%,62.745098%);fill-opacity:1;" d="M 163.359375 34.71875 C 165.820312 36.417969 184.140625 49.441406 182.359375 65.980469 C 182.359375 65.980469 181.441406 74.460938 173.460938 82.28125 C 149.058594 106.179688 54.960938 78.699219 45.558594 75.902344 C 79.238281 83.738281 87.980469 83.480469 88.761719 81.28125 C 88.980469 80.660156 88.539062 79.902344 88.082031 79.097656 C 85.058594 73.820312 77.78125 73.039062 75.140625 72.878906 C 80.441406 71.097656 87.417969 69.859375 94.140625 72.539062 C 102.378906 75.839844 104.261719 83.5 110.28125 83.121094 C 114.359375 82.878906 115.179688 79.339844 122.039062 75.378906 C 127.140625 72.441406 132.019531 71.320312 135.320312 70.839844 C 131.097656 73.082031 123.121094 77.621094 123.902344 80.261719 C 124.519531 82.359375 130.402344 82.5 133.820312 82.097656 C 142.679688 81.097656 148.941406 75 152.140625 71.179688 C 152.5 71.800781 155.960938 77.558594 161.71875 77.738281 C 167.519531 77.917969 171.238281 72.28125 172.058594 71.058594 C 177.460938 62.800781 173.621094 48.519531 163.359375 34.71875 Z M 163.359375 34.71875 "/>
</g>
</svg>
